inDegrees=yes
name=ik_lifting_orientations
DataType=double
version=3
OpenSimVersion=4.5-2024-01-10-34fd6af
endheader
time	pelvis_tilt	pelvis_list	pelvis_rotation	pelvis_tx	pelvis_ty	pelvis_tz	hip_flexion_r	hip_adduction_r	hip_rotation_r	knee_angle_r	knee_angle_r_beta	ankle_angle_r	subtalar_angle_r	mtp_angle_r	hip_flexion_l	hip_adduction_l	hip_rotation_l	knee_angle_l	knee_angle_l_beta	ankle_angle_l	subtalar_angle_l	mtp_angle_l	lumbar_extension	lumbar_bending	lumbar_rotation	arm_flex_r	arm_add_r	arm_rot_r	elbow_flex_r	pro_sup_r	wrist_flex_r	wrist_dev_r	arm_flex_l	arm_add_l	arm_rot_l	elbow_flex_l	pro_sup_l	wrist_flex_l	wrist_dev_l
3.23	-0.6170787797096317	7.674193215887974	-89.88559497427137	0	0.9400000003403366	0	44.61030268616805	-10.24445210574765	0	59.57528179293387	1.039784820090127	-5.064261683065737	0	0	44.61030268616805	-10.24445210574765	0	59.57528179293387	1.039784820090127	-5.064261683065737	0	0	7.670910764491481	0.6020347282545203	-0.04855683920774684	12.07741739062539	-74.10576473802499	14.20276413418834	27.02276342679345	-5.233295742474675	0	0	0	-10.70779105873484	0	77.13101738357729	5.233085504720999	0	0
3.24	-0.6623379979899473	7.702811447065302	-89.8743938933051	0	0.9400000003403366	0	44.61135862837423	-10.24213350975713	0	59.57618198543663	1.039800531413202	-5.063466957243755	0	0	44.61135862837423	-10.24213350975713	0	59.57618198543663	1.039800531413202	-5.063466957243755	0	0	7.706224912170129	0.6411046886681161	-0.06760594725762509	10.73255798151179	-74.01813858524731	13.03843014661413	27.31409477402713	-5.223408958107036	0	0	0	-10.71374126800075	0	77.12523910025912	5.223198720281534	0	0
3.25	-0.7140797413388272	7.746844854773536	-89.86345739230038	0	0.9400000003403366	0	44.61256512974363	-10.23950510600981	0	59.57721122458007	1.039818495025045	-5.062569070322011	0	0	44.61256512974363	-10.23950510600981	0	59.57721122458007	1.039818495025045	-5.062569070322011	0	0	7.734613627241766	0.6921265802506823	-0.06926331681476616	8.38619968303705	-73.92159115292196	10.83895619248224	27.83285149621494	-5.212101946846166	0	0	0	-10.72055022408785	0	77.11863698130614	5.211891708938539	0	0
3.26	-0.7807805364314201	7.514543696729043	-89.83513294365801	0	0.9400000003403366	0	44.61262734118189	-10.23937083955323	0	59.57726456678918	1.039819426022224	-5.062523322794287	0	0	44.61262734118189	-10.23937083955323	0	59.57726456678918	1.039819426022224	-5.062523322794287	0	0	7.55137404002147	0.7530781403667827	0.002674840673021096	8.377607621874692	-73.49768649616414	10.93598972660792	27.7301129293687	-5.211517622420841	0	0	0	-10.72090274903981	0	77.11829655660898	5.211307384508966	0	0
3.27	-0.7214785181925736	7.395115965642441	-89.85153659098161	0	0.9400000003403366	0	44.61359433168062	-10.23727779170833	0	59.57808984223075	1.039833829795916	-5.06181031867614	0	0	44.61359433168062	-10.23727779170833	0	59.57808984223075	1.039833829795916	-5.06181031867614	0	0	7.393733472428455	0.7030780045220489	-0.07088809054458868	10.19659581724727	-72.86476492913523	12.81483134368899	27.18084949182722	-5.202448576764067	0	0	0	-10.72636649372781	0	77.11300510071477	5.202238338786313	0	0
3.28	-0.6863875452238339	7.294629939886888	-89.8438495204913	0	0.9400000003403366	0	44.61460544179484	-10.2351033828609	0	59.57895317349842	1.039848897769072	-5.06107167111274	0	0	44.61460544179484	-10.2351033828609	0	59.57895317349842	1.039848897769072	-5.06107167111274	0	0	7.296046384147406	0.6630667104507503	-0.08572232581432189	11.10373441828778	-72.12753140710404	13.89113261901054	26.79365128215908	-5.192958687049058	0	0	0	-10.73208641333494	0	77.10747225095086	5.19274844900238	0	0
3.29	-0.6586306096513787	7.180279432262169	-89.85300999864063	0	0.9400000003403366	0	44.61659411240435	-10.2322107320153	0	59.58112142642296	1.039886740921621	-5.060173667943236	0	0	44.61659411240435	-10.2322107320153	0	59.58112142642296	1.039886740921621	-5.060173667943236	0	0	7.203481201403106	0.6037805305681458	0.05485891009091342	11.4857604719456	-71.44784018589506	14.26448324137485	29.91095107430402	-5.172366526004419	0	0	0	-10.74553183155083	0	77.0965948541504	5.172156287808702	0	0
3.3	-0.6311498589716013	7.307281814356327	-89.87697469867874	0	0.9400000003403366	0	44.61739808174261	-10.23050477678485	0	59.58180836350795	1.039898730235508	-5.059597061846307	0	0	44.61739808174261	-10.23050477678485	0	59.58180836350795	1.039898730235508	-5.059597061846307	0	0	7.315423203410638	0.613129478836291	-0.04449691002058007	13.24569664130172	-70.24657293367119	16.17423601440516	28.86351863335187	-5.164806100387827	0	0	0	-10.75009487417672	0	77.0921955569699	5.164595862137205	0	0
3.31	-0.6897170855306241	7.364302153373168	-89.85848810511263	0	0.9400000003403366	0	44.61911640263772	-10.22800515880567	0	59.58367158838767	1.039931249644364	-5.058821955241901	0	0	44.61911640263772	-10.22800515880567	0	59.58367158838767	1.039931249644364	-5.058821955241901	0	0	7.366981855731312	0.6676511452902032	-0.05430364631510923	13.27129290874755	-69.06118208062951	16.31891797302005	30.02521450186997	-5.14702584180879	0	0	0	-10.76169648889416	0	77.08279685585782	5.146815603429482	0	0
3.32	-0.6885228177170563	7.172614368947383	-89.8470719500483	0	0.9400000003403366	0	44.62118694743569	-10.22461230055767	0	59.58577524798808	1.039967965430733	-5.05773741059927	0	0	44.62118694743569	-10.22461230055767	0	59.58577524798808	1.039967965430733	-5.05773741059927	0	0	7.178565488125328	0.6676740317917523	-0.07428181974311003	12.10104908999988	-67.5660548855418	15.50345050099875	30.02757477180514	-5.126156237731412	0	0	0	-10.77504108044853	0	77.07147028776302	5.125945999200912	0	0
3.33	-0.6753077989195365	7.323518405946868	-89.85138371226637	0	0.9400000003403366	0	44.62259277170345	-10.2225055063774	0	59.58726876897894	1.039994032289471	-5.057079476840061	0	0	44.62259277170345	-10.2225055063774	0	59.58726876897894	1.039994032289471	-5.057079476840061	0	0	7.321022506918102	0.6302623492332353	-0.02171872048092521	12.08135375321952	-65.86392623401373	15.76740575317393	29.52439813934958	-5.1117077379519	0	0	0	-10.78441938093521	0	77.06378062070354	5.111497499316801	0	0
3.34	-0.5691316070884729	7.365213294681087	-89.88589459000649	0	0.9400000003403366	0	44.62381120377727	-10.22070356724327	0	59.58857023323758	1.040016747125881	-5.056518788871882	0	0	44.62381120377727	-10.22070356724327	0	59.58857023323758	1.040016747125881	-5.056518788871882	0	0	7.368994405577726	0.5469721197980569	-0.03172551686911285	11.64225884342761	-64.02608153786348	15.86041718574391	28.2125776373161	-5.099150558844656	0	0	0	-10.79258711542921	0	77.05711604526627	5.098940320118658	0	0
